<?xml version="1.0" encoding="UTF-8" standalone="no"?><!DOCTYPE svg PUBLIC "-//W3C//DTD SVG 1.1//EN" "http://www.w3.org/Graphics/SVG/1.1/DTD/svg11.dtd"><svg width="100%" height="100%" viewBox="0 0 800 800" version="1.1" xmlns="http://www.w3.org/2000/svg" xmlns:xlink="http://www.w3.org/1999/xlink" xml:space="preserve" xmlns:serif="http://www.serif.com/" style="fill-rule:evenodd;clip-rule:evenodd;stroke-linejoin:round;stroke-miterlimit:2;"><g id="Page-1"><g id="Dribbble-Light-Preview"><g id="icons"><path id="github---142-" serif:id="github-[#142]" d="M400,122c153.54,0 278,127.602 278,285.034c0,125.906 -79.564,232.714 -189.958,270.439c-14.095,2.808 -19.099,-6.088 -19.099,-13.678c0,-9.396 0.334,-40.088 0.334,-78.229c0,-26.577 -8.896,-43.924 -18.876,-52.764c61.911,-7.061 126.963,-31.164 126.963,-140.64c0,-31.136 -10.786,-56.545 -28.634,-76.506c2.891,-7.2 12.427,-36.196 -2.724,-75.449c0,0 -23.296,-7.645 -76.367,29.218c-22.212,-6.311 -46.009,-9.48 -69.639,-9.591c-23.63,0.111 -47.399,3.28 -69.584,9.591c-53.126,-36.863 -76.478,-29.218 -76.478,-29.218c-15.095,39.254 -5.56,68.249 -2.697,75.449c-17.764,19.96 -28.634,45.37 -28.634,76.506c0,109.199 64.913,133.663 126.657,140.863c-7.951,7.117 -15.151,19.682 -17.653,38.114c-15.846,7.284 -56.1,19.877 -80.898,-23.686c0,0 -14.706,-27.383 -42.617,-29.385c0,0 -27.105,-0.361 -1.89,17.319c0,0 18.209,8.757 30.858,41.7c0,0 16.319,50.874 93.658,33.638c0.139,23.825 0.389,46.287 0.389,53.07c0,7.534 -5.115,16.346 -18.987,13.705c-110.477,-37.669 -190.125,-144.532 -190.125,-270.467c0,-157.432 124.489,-285.034 278,-285.034"/></g></g></g><g id="Page-11" serif:id="Page-1"></g></svg>