<?xml version="1.0" encoding="UTF-8" standalone="no"?><!DOCTYPE svg PUBLIC "-//W3C//DTD SVG 1.1//EN" "http://www.w3.org/Graphics/SVG/1.1/DTD/svg11.dtd"><svg width="100%" height="100%" viewBox="0 0 800 800" version="1.1" xmlns="http://www.w3.org/2000/svg" xmlns:xlink="http://www.w3.org/1999/xlink" xml:space="preserve" xmlns:serif="http://www.serif.com/" style="fill-rule:evenodd;clip-rule:evenodd;stroke-linejoin:round;stroke-miterlimit:2;"><path d="M184.144,120.696c-25.479,16.27 -75.651,78.286 -76.144,94.556l0,27.019c0,34.093 29.658,64.197 56.561,64.197c32.323,0 59.335,-28.866 59.335,-63.135c0,34.27 25.935,63.135 58.349,63.135c32.323,0 57.51,-28.866 57.51,-63.135c0,34.27 27.669,63.135 59.992,63.135l0.584,0c32.414,0 60.065,-28.866 60.065,-63.135c0,34.27 25.205,63.135 57.528,63.135c32.323,0 58.349,-28.866 58.349,-63.135c0,34.27 26.921,63.135 59.225,63.135c26.994,0 56.652,-30.104 56.652,-64.197l0,-27.019c-0.584,-16.27 -50.666,-78.286 -76.236,-94.556c-79.192,-3.065 -134.037,-3.596 -215.785,-3.596c-81.839,0.098 -193.336,1.434 -215.876,3.596l-0.11,0Zm155.227,169.658c-3.34,6.052 -7.027,11.161 -11.407,15.661l0,0.098c-12.265,12.792 -28.983,20.77 -47.435,20.77c-18.543,0 -35.261,-7.998 -47.435,-20.888c-4.472,-4.618 -7.812,-9.609 -10.951,-15.465c-3.048,5.836 -7.301,10.847 -11.772,15.465c-12.265,12.89 -28.983,20.888 -47.435,20.888l-0.091,0c-2.19,0 -4.472,-0.707 -6.37,-1.434c-2.555,29.18 -3.705,57.005 -4.088,77.362l0,0.098c-0.091,10.356 -0.091,18.726 -0.201,30.497c0.584,61.21 -5.603,198.249 25.114,231.929c47.526,11.869 134.986,17.292 222.611,17.39l0.091,0c87.734,-0.098 175.084,-5.522 222.611,-17.39c30.717,-33.66 24.53,-170.719 25.114,-231.929c-0.091,-11.77 -0.091,-20.141 -0.201,-30.497l0,-0.098c-0.383,-20.357 -1.442,-48.182 -4.088,-77.362c-1.807,0.727 -4.18,1.434 -6.37,1.434l-0.091,0c-18.452,0 -35.17,-7.998 -47.435,-20.888l0.091,0c-4.472,-4.618 -8.742,-9.609 -11.772,-15.465l-0.091,0c-3.048,5.836 -6.479,10.847 -10.86,15.465c-12.174,12.89 -28.892,20.888 -47.435,20.888c-18.452,0 -35.17,-7.998 -47.435,-20.888c-4.38,-4.5 -8.085,-9.727 -11.225,-15.465l-0.201,-0.314c-3.139,6.052 -6.935,11.259 -11.225,15.779c-12.265,12.89 -28.983,20.888 -47.435,20.888l-0.091,0c-0.566,0 -1.241,0 -1.898,-0.098c-0.657,0.098 -1.332,0.098 -1.989,0.098l-0.091,0c-18.452,0 -35.17,-7.998 -47.326,-20.888c-4.38,-4.5 -8.085,-9.727 -11.115,-15.465l-0.201,-0.314l0.128,0.138Zm-48.767,67.871c19.292,0.098 36.411,0 57.692,24.975c16.718,-1.827 34.221,-2.751 51.706,-2.751c17.485,0 34.988,0.924 51.706,2.751c21.299,-24.975 38.401,-24.975 57.692,-24.975l0.091,0c9.126,0 45.628,0 71.016,76.871l27.286,105.501c20.241,78.502 -6.479,80.467 -39.733,80.467c-49.424,-1.965 -76.801,-40.636 -76.801,-79.327c-27.377,4.932 -59.335,7.29 -91.256,7.29c-31.921,0 -63.879,-2.358 -91.165,-7.29c0,38.691 -27.377,77.362 -76.801,79.327c-33.363,-0.098 -60.083,-1.965 -39.843,-80.467l27.286,-105.501c25.479,-76.871 61.981,-76.871 71.107,-76.871l0.018,0Zm109.416,60.483c-0.091,0 -51.998,51.483 -61.397,69.699l34.02,-1.434l0,31.931c0,1.552 13.707,0.924 27.377,0.216c13.67,0.707 27.286,1.336 27.286,-0.216l0,-31.931l34.112,1.434c-9.399,-18.216 -61.397,-69.699 -61.397,-69.699Z" style="fill-rule:nonzero;"/></svg>