<?xml version="1.0" encoding="UTF-8" standalone="no"?><!DOCTYPE svg PUBLIC "-//W3C//DTD SVG 1.1//EN" "http://www.w3.org/Graphics/SVG/1.1/DTD/svg11.dtd"><svg width="100%" height="100%" viewBox="0 0 800 800" version="1.1" xmlns="http://www.w3.org/2000/svg" xmlns:xlink="http://www.w3.org/1999/xlink" xml:space="preserve" xmlns:serif="http://www.serif.com/" style="fill-rule:evenodd;clip-rule:evenodd;stroke-linejoin:round;stroke-miterlimit:2;"><g id="Page-1"><g id="Dribbble-Light-Preview"><g id="icons"><path id="linkedin---161-" serif:id="linkedin-[#161]" d="M672,672l-108.8,0l0,-190.373c0,-52.224 -23.038,-81.355 -64.355,-81.355c-44.962,0 -71.645,30.355 -71.645,81.355l0,190.373l-108.8,0l0,-353.6l108.8,0l0,39.766c0,0 34.136,-59.894 111.058,-59.894c76.949,0 133.742,46.947 133.742,144.106l0,229.622Zm-477.578,-410.149c-36.693,0 -66.422,-29.974 -66.422,-66.939c0,-36.938 29.73,-66.912 66.422,-66.912c36.666,0 66.395,29.974 66.395,66.912c0.027,36.965 -29.73,66.939 -66.395,66.939Zm-66.422,410.149l136,0l0,-353.6l-136,0l0,353.6Z"/></g></g></g></svg>