<?xml version="1.0" encoding="UTF-8" standalone="no"?><!DOCTYPE svg PUBLIC "-//W3C//DTD SVG 1.1//EN" "http://www.w3.org/Graphics/SVG/1.1/DTD/svg11.dtd"><svg width="100%" height="100%" viewBox="0 0 800 800" version="1.1" xmlns="http://www.w3.org/2000/svg" xmlns:xlink="http://www.w3.org/1999/xlink" xml:space="preserve" xmlns:serif="http://www.serif.com/" style="fill-rule:evenodd;clip-rule:evenodd;stroke-linejoin:round;stroke-miterlimit:2;"><g id="Page-1"><g id="Dribbble-Light-Preview"><g id="icons"><path id="youtube---168-" serif:id="youtube-[#168]" d="M326.986,503.435l0,-224.465c71.321,37.497 126.559,73.718 191.889,112.771c-53.883,33.388 -120.568,70.846 -191.889,111.694m397.472,-336.12c-12.303,-18.11 -33.271,-32.192 -55.595,-36.859c-65.615,-13.922 -474.962,-13.962 -540.542,0c-17.902,3.75 -33.842,12.805 -47.535,26.886c-57.699,59.836 -39.619,380.718 -25.711,432.696c5.848,22.498 13.408,38.734 22.93,49.385c12.267,14.081 29.063,23.775 48.356,28.123c54.026,12.486 332.356,19.467 541.362,1.875c19.257,-3.75 36.302,-13.762 49.746,-28.442c53.348,-59.597 49.711,-398.509 6.989,-473.663"/></g></g></g></svg>